<svg width="162" height="163" viewBox="0 0 162 163" fill="none" xmlns="http://www.w3.org/2000/svg">
<path fill-rule="evenodd" clip-rule="evenodd" d="M74.2678 53.021C75.3049 63.0881 69.0438 79.0009 76.6138 86.4961C83.5767 93.3901 99.3758 88.093 111.277 88.3921C121.006 88.6369 130.76 88.75 140.477 88.334C146.724 88.0661 148.981 89.7109 148.339 96.455C144.755 134.08 110.659 163.759 71.7699 162.677C33.3238 161.608 1.29379 129.799 0.045859 91.447C-1.22111 52.4841 27.8529 18.53 65.7329 14.4641C71.6139 13.833 74.8159 14.5461 74.4058 21.6921C73.8498 31.396 74.2678 41.155 74.2678 53.021Z" fill="#39B54A"/>
<path fill-rule="evenodd" clip-rule="evenodd" d="M125.406 74.9314C116.039 74.9314 106.65 74.5664 97.3076 75.0522C90.4336 75.4082 87.3435 73.9514 87.5896 66.0442C88.1845 46.9514 88.1645 27.8152 87.5996 8.72019C87.3674 0.896219 90.6006 0.227269 96.9126 1.03025C130.466 5.29832 157.832 32.9353 161.775 66.2632C162.623 73.4182 160.479 75.4702 153.504 75.0652C144.167 74.5222 134.775 74.9304 125.406 74.9314Z" fill="#C1272D"/>
</svg>
