<svg width="38" height="36" viewBox="0 0 38 36" fill="none" xmlns="http://www.w3.org/2000/svg">
<path fill-rule="evenodd" clip-rule="evenodd" d="M7.30862 6.48889C7.27664 4.93689 7.83572 3.54285 6.2897 2.599C5.78372 2.28992 5.79763 1.60877 6.12161 1.06091C6.61966 0.218867 7.45962 0.286977 8.27066 0.286977C14.1676 0.287957 20.0636 0.285757 25.9596 0.287957C27.4946 0.287957 29.0426 0.174917 30.5597 0.338987C31.9806 0.491817 32.7857 1.60193 31.6046 2.62488C30.2196 3.82581 30.8777 5.06189 30.6177 6.47693C31.2926 6.34192 31.7296 6.21497 32.1747 6.17078C34.4116 5.95398 36.1397 6.8429 37.2497 8.76087C38.3876 10.7299 38.1206 12.6559 36.6757 14.381C34.3697 17.132 31.2237 18.6478 27.9997 19.9449C26.1487 20.6908 24.6607 21.6749 23.4217 23.2789C21.4047 25.892 16.6707 25.9508 14.6786 23.3788C13.3897 21.715 11.8656 20.621 9.92264 19.8829C7.20072 18.849 4.60672 17.5209 2.42667 15.5328C0.0397062 13.3568 -0.522304 11.1449 0.673616 8.87292C1.86466 6.60998 4.00271 5.8048 7.30862 6.48889ZM9.81668 16.5699C8.89065 14.2828 8.28067 12.361 7.34866 10.61C6.61563 9.23182 5.30972 8.32996 3.7847 9.60291C2.34769 10.8009 3.05069 12.069 4.11661 13.1139C5.62161 14.59 7.41764 15.622 9.81668 16.5699ZM28.2837 16.5179C30.8446 15.4918 32.9097 14.3448 34.4667 12.434C35.1636 11.579 35.2146 10.6478 34.4586 9.80384C33.8167 9.08778 32.9946 8.78284 32.0707 9.25086C31.0946 9.745 30.4727 10.5648 30.1006 11.59C29.5536 13.0968 28.9916 14.6 28.2837 16.5179Z" fill="white"/>
<path fill-rule="evenodd" clip-rule="evenodd" d="M18.8973 35.2363C16.6382 35.2363 14.3783 35.2302 12.1193 35.2403C11.3263 35.2432 10.6753 35.0073 10.3823 34.2163C10.1172 33.4983 10.4593 32.9653 11.0263 32.5562C11.3493 32.3233 11.5983 32.1172 11.7273 31.6682C12.7923 27.9583 12.8093 27.9622 16.5702 27.9612C18.7493 27.9602 20.9273 27.9631 23.1063 27.9663C24.6653 27.9693 25.8293 28.6773 26.1432 30.1992C26.3693 31.2993 26.6983 32.1563 27.3932 33.1072C28.3264 34.3833 27.2963 35.1863 25.9173 35.2202C23.5783 35.2774 21.2374 35.2354 18.8973 35.2363Z" fill="white"/>
</svg>
