<svg xmlns="http://www.w3.org/2000/svg" width="151.934" height="86" viewBox="0 0 151.934 86">
  <g id="Group_351" data-name="Group 351" transform="translate(-2390.066 -833.109)">
    <g id="Group_349" data-name="Group 349">
      <text id="GPA" transform="translate(2445 833.109)" fill="#ccc" font-size="48" font-family="SegoeUI, Segoe UI" letter-spacing="-0.001em"><tspan x="9.604" y="52">GPA</tspan></text>
    </g>
    <g id="Group_350" data-name="Group 350">
      <path id="Path_288" data-name="Path 288" d="M2397.309,857.489c-.032-1.552.527-2.946-1.019-3.89a1.094,1.094,0,0,1-.168-1.538c.5-.842,1.338-.774,2.149-.774q8.845,0,17.689,0a43,43,0,0,1,4.6.051c1.421.153,2.226,1.263,1.045,2.286-1.385,1.2-.727,2.437-.987,3.852.675-.135,1.112-.262,1.557-.306a4.935,4.935,0,0,1,5.075,2.59,4.587,4.587,0,0,1-.574,5.62c-2.306,2.751-5.452,4.267-8.676,5.564a10.34,10.34,0,0,0-4.578,3.334c-2.017,2.613-6.751,2.672-8.743.1a10.459,10.459,0,0,0-4.756-3.5,23.024,23.024,0,0,1-7.5-4.35c-2.387-2.176-2.949-4.388-1.753-6.66S2394,856.8,2397.309,857.489Zm2.508,10.081c-.926-2.287-1.536-4.209-2.468-5.96-.733-1.378-2.039-2.28-3.564-1.007-1.437,1.2-.734,2.466.332,3.511A16.312,16.312,0,0,0,2399.817,867.57Zm18.467-.052a14.4,14.4,0,0,0,6.183-4.084,2.046,2.046,0,0,0-2.4-3.183,4.027,4.027,0,0,0-1.97,2.339C2419.554,864.1,2418.992,865.6,2418.284,867.518Z" fill="#d9e021"/>
      <path id="Path_289" data-name="Path 289" d="M2408.9,886.236c-2.259,0-4.519-.006-6.778,0a1.62,1.62,0,0,1-1.737-1.024,1.357,1.357,0,0,1,.644-1.66,1.543,1.543,0,0,0,.7-.888c1.065-3.71,1.082-3.706,4.843-3.707q3.268,0,6.536.005a2.782,2.782,0,0,1,3.037,2.233,6.907,6.907,0,0,0,1.25,2.908c.933,1.276-.1,2.079-1.476,2.113C2413.578,886.277,2411.237,886.235,2408.9,886.236Z" fill="#d9e021"/>
    </g>
  </g>
</svg>
