<svg height="20.002" viewBox="0 0 16.725 20.002" width="16.725" xmlns="http://www.w3.org/2000/svg">
    <g data-name="Iconly/Light-Outline/Lock" id="Iconly_Light-Outline_Lock"
        transform="translate(-4 -2)">
        <g id="Lock" transform="translate(4 2)">
            <path
                d="M8.375,0a5.306,5.306,0,0,1,5.3,5.3V6.88a4.549,4.549,0,0,1,3.052,4.291V15.46A4.546,4.546,0,0,1,12.183,20H4.542A4.546,4.546,0,0,1,0,15.46V11.171A4.549,4.549,0,0,1,3.051,6.88V5.3A5.278,5.278,0,0,1,4.62,1.538,5.129,5.129,0,0,1,8.375,0Zm3.808,8.127H4.542A3.045,3.045,0,0,0,1.5,11.171V15.46A3.045,3.045,0,0,0,4.542,18.5h7.641a3.045,3.045,0,0,0,3.042-3.042V11.171A3.045,3.045,0,0,0,12.183,8.129ZM8.362,11.455a.75.75,0,0,1,.75.75v2.221a.75.75,0,0,1-1.5,0V12.2A.75.75,0,0,1,8.362,11.455ZM8.372,1.5H8.356a3.8,3.8,0,0,0-3.8,3.784V6.628h7.621V5.3A3.805,3.805,0,0,0,8.372,1.5Z"
                fill-rule="evenodd" id="Combined-Shape" />
        </g>
    </g>
</svg>
