<svg id="Group_291" data-name="Group 291" xmlns="http://www.w3.org/2000/svg" width="64.922" height="71.32" viewBox="0 0 64.922 71.32">
  <path id="Path_225" data-name="Path 225" d="M3359.63,132.98a20.751,20.751,0,0,1-3.63,1.63c-5.09,1.92-10.54,2-15.79,2.28-9.69.52-19.47.67-29.13-.72-3.6-.53-7.32-1.09-10.53-3.16-3.34-2.15-3.98-4.63-1.17-6.42,9.03-5.76,11.21-14.72,11.17-24.35a32.334,32.334,0,0,1,.62-6.73,18.994,18.994,0,0,1,36.33-4.9.5.5,0,0,1,.05.13c1.62,3.55,2.03,7.63,2.07,11.91.1,9.18,2.22,17.71,10.41,23.5C3363.52,128.63,3363.33,130.73,3359.63,132.98Z" transform="translate(-3297.609 -79)" fill="#d9e021"/>
  <path id="Path_226" data-name="Path 226" d="M3322.811,137.862c-1.591,5.565-.39,8.929,3.617,11.375,2.938,1.794,5.6,1.17,8.091-.492a8.306,8.306,0,0,0,3.648-8.452,13.334,13.334,0,0,0-.785-2.431Z" transform="translate(-3297.609 -79)" fill="#aa1"/>
</svg>
