<svg width="246" height="44" viewBox="0 0 246 44" fill="none" xmlns="http://www.w3.org/2000/svg">
<path d="M244 18.9311C244 18.9311 237.538 22.8083 223.968 22.8083C213.677 22.8083 205.842 18.3432 199.246 26.2431C191.692 35.2912 177.293 46.4452 157.487 34.6752C152.846 31.9171 147.077 31.6281 142.308 34.1581C134.922 38.0771 123.92 40.1313 118.85 22.1752C118.656 21.4882 118.427 20.8083 118.143 20.1532C115.393 13.7973 100.565 -17.0528 87.361 22.8151C84.66 30.9701 76.046 35.3551 67.79 32.9811C63.215 31.6662 58.083 31.6781 53.201 34.9152C48.324 38.1471 41.9351 38.0641 36.922 35.0492C27.721 29.5141 14.278 28.3002 2 41.2243" stroke="#39B54A" stroke-width="3.88121" stroke-linecap="round"/>
</svg>
