<svg width="440" height="463" viewBox="0 0 440 463" fill="none" xmlns="http://www.w3.org/2000/svg">
<path fill-rule="evenodd" clip-rule="evenodd" d="M0 92C0 86.7533 4.25329 82.5 9.49999 82.5H340.5C345.747 82.5 350 86.7533 350 92C350 97.2467 345.747 101.5 340.5 101.5H9.49999C4.25329 101.5 0 97.2467 0 92Z" fill="#E77A2E"/>
<path fill-rule="evenodd" clip-rule="evenodd" d="M0 149.4C0 144.153 4.25329 139.9 9.49999 139.9H318.5C323.747 139.9 328 144.153 328 149.4C328 154.647 323.747 158.9 318.5 158.9H9.49999C4.25329 158.9 0 154.647 0 149.4Z" fill="#8470FD"/>
<path fill-rule="evenodd" clip-rule="evenodd" d="M0 206.8C0 201.553 4.25329 197.3 9.49999 197.3H295.5C300.747 197.3 305 201.553 305 206.8C305 212.047 300.747 216.3 295.5 216.3H9.49999C4.25329 216.3 0 212.047 0 206.8Z" fill="#39B54A"/>
<path fill-rule="evenodd" clip-rule="evenodd" d="M0 264.2C0 258.953 4.25329 254.7 9.49999 254.7H152.5C157.747 254.7 162 258.953 162 264.2C162 269.447 157.747 273.7 152.5 273.7H9.49999C4.25329 273.7 0 269.447 0 264.2Z" fill="#C1272D"/>
<path fill-rule="evenodd" clip-rule="evenodd" d="M0 321.6C0 316.353 4.25329 312.1 9.49999 312.1H287.5C292.747 312.1 297 316.353 297 321.6C297 326.847 292.747 331.1 287.5 331.1H9.49999C4.25329 331.1 0 326.847 0 321.6Z" fill="#A4DE67"/>
<path fill-rule="evenodd" clip-rule="evenodd" d="M0 379C0 373.753 4.25329 369.5 9.49999 369.5H219.5C224.747 369.5 229 373.753 229 379C229 384.247 224.747 388.5 219.5 388.5H9.49999C4.25329 388.5 0 384.247 0 379Z" fill="#4DC0F9"/>
</svg>
